<svg xmlns="http://www.w3.org/2000/svg" viewBox="0 0 18 18"><g fill="#FFF" fill-rule="evenodd"><path d="M15.6 17H2.4c-.7630296 0-1.4-.6142214-1.4-1.4V2.4C1 1.6369704 1.61422144 1 2.4 1h13.2c.7630296 0 1.4.61422144 1.4 1.4v13.2c0 .7238576-.6761424 1.4-1.4 1.4zm0 1c1.2761424 0 2.4-1.1238576 2.4-2.4V2.4C18 1.0536357 16.9073408 0 15.6 0H2.4C1.0536357 0 0 1.09265924 0 2.4v13.2C0 16.9463643 1.09265924 18 2.4 18h13.2z"/><path d="M1 4h16V3H1m2.73500053 10.0760008l.52999894.8479984L8.9433981 11 4.26499948 8.07600085l-.52999894.8479983L7.0566019 11M11 14h4v-1h-4"/></g></svg>
